<?xml version="1.0" encoding="UTF-8"?>
<svg id="Capa_1" xmlns="http://www.w3.org/2000/svg" version="1.1" viewBox="0 0 45.64 45.65">
  <!-- Generator: Adobe Illustrator 30.5.1, SVG Export Plug-In . SVG Version: 2.1.4 Build 3)  -->
  <defs>
    <style>
      .st0 {
        fill: #e52629;
      }
    </style>
  </defs>
  <path class="st0" d="M43.79,8.31l-3.71,3.71-6.16-.3-.3-6.16,3.71-3.71c.63-.63.21-1.71-.66-1.79-3.29-.33-6.37.67-8.44,2.73-.63.63-1.17,1.34-1.61,2.09l-.13-.05c-.65-.27-1.38-.04-1.74.56l-1.61,2.65c-1.79-.28-3.58-.28-5.3.02l-1.63-2.67c-.36-.6-1.09-.84-1.74-.57l-4.12,1.71c-.65.26-1.01.96-.84,1.63l.73,3.01c-1.44,1.05-2.71,2.31-3.73,3.75l-3.04-.72c-.67-.18-1.36.17-1.64.83L.11,19.17c-.27.66-.03,1.39.56,1.74l2.66,1.62c-.28,1.76-.28,3.55.02,5.29l-2.68,1.65c-.59.37-.82,1.1-.55,1.73l1.72,4.14c.27.63.95.98,1.62.83l3.02-.73c1.04,1.43,2.3,2.7,3.75,3.72l-.73,3.06c-.15.67.19,1.36.83,1.63l4.15,1.72c.63.25,1.36.01,1.73-.58l1.61-2.65c1.75.28,3.54.28,5.29-.02l1.64,2.67c.37.6,1.1.84,1.74.56l4.15-1.7c.63-.27.98-.95.83-1.63l-.73-3.01c1.44-1.05,2.71-2.32,3.72-3.75l3.06.73c.67.15,1.37-.21,1.62-.83l1.72-4.14c.27-.63.04-1.36-.56-1.74l-2.65-1.62c.27-1.76.27-3.54-.02-5.29l2.66-1.63c.6-.37.83-1.1.56-1.74l-.06-.15c.75-.44,1.45-.97,2.08-1.6,2.06-2.06,3.06-5.14,2.73-8.43-.08-.9-1.16-1.29-1.79-.67ZM36.86,21.32c-.49.3-.75.86-.65,1.41.25,1.62.25,3.27,0,4.87-.1.56.15,1.12.63,1.42l2.67,1.62-1.69,4.13-3.05-.73c-.52-.13-1.1.07-1.46.54-.96,1.32-2.11,2.48-3.43,3.44-.46.32-.68.89-.56,1.46l.75,3.02-4.12,1.71-1.64-2.68c-.29-.47-.84-.72-1.4-.63-1.64.25-3.28.25-4.9-.01-.55-.07-1.09.17-1.4.65l-1.61,2.67-4.12-1.69.74-3.07c.12-.55-.1-1.11-.55-1.43-1.33-.98-2.49-2.14-3.43-3.44-.33-.47-.9-.68-1.46-.55l-3.03.73-1.73-4.11,2.66-1.64c.49-.29.75-.86.65-1.41-.26-1.62-.26-3.26,0-4.89.08-.57-.18-1.12-.65-1.4l-2.66-1.62,1.69-4.12,3.05.72c.56.13,1.13-.08,1.46-.54.97-1.33,2.12-2.48,3.45-3.45.46-.34.67-.91.53-1.45l-.73-3.02,4.11-1.73,1.64,2.68c.3.47.83.71,1.41.63,1.6-.25,3.24-.25,4.87,0,.56.1,1.13-.16,1.42-.64l1.62-2.66.04.02c-.78,1.88-.96,4-.58,5.91.04.19-.03.39-.18.53l-2.37,2.37c-4.65-1.12-9.88,1.1-12.07,6.2-2.78,6.59,2,14.92,10.23,14.49,2.35,0,5.7-1.36,7.86-4.2,1.66-2.22,2.38-5.06,1.97-7.78-.03-.29-.09-.59-.17-.9l2.37-2.37c.18-.19.42-.2.67-.15,1.96.36,4.01.12,5.78-.62l.02.05-2.66,1.63ZM21.63,16.19l-10.16,10.16c-.19-1.51.02-3.21.62-4.62,1.56-3.65,4.92-5.62,8.37-5.62.39,0,.78.03,1.17.08ZM19.29,34.17c3.52-3.52,6.55-6.56,10.17-10.17.31,2.33-.31,4.72-1.72,6.59-1.83,2.41-4.77,3.63-6.76,3.64-.64.03-1.14.02-1.69-.06ZM41.83,16.4c-1.99,1.99-5.03,3.03-8.02,2.43-.6-.09-1.31.1-1.79.58l-14.38,14.38c-2.53-.77-4.87-2.97-5.79-5.8l14.39-14.39c.48-.5.69-1.13.55-1.89-.55-2.94.45-5.91,2.45-7.92,1.6-1.6,3.92-2.43,6.49-2.37l-3.23,3.23c-.2.2-.31.47-.31.79l.32,6.67c.03.54.47.98,1,1l6.71.33c.29,0,.55-.11.75-.31l3.23-3.23c.07,2.56-.78,4.89-2.37,6.49Z"/>
</svg>